<?xml version="1.0" standalone="no"?>
<!DOCTYPE svg PUBLIC "-//W3C//DTD SVG 20010904//EN"
 "http://www.w3.org/TR/2001/REC-SVG-20010904/DTD/svg10.dtd">
<svg version="1.0" xmlns="http://www.w3.org/2000/svg"
 width="200.000000pt" height="200.000000pt" viewBox="0 0 200.000000 200.000000"
 preserveAspectRatio="xMidYMid meet">

<g transform="translate(0.000000,200.000000) scale(0.100000,-0.100000)"
fill="#fff" stroke="none">
<path d="M814 1888 c-82 -76 -90 -116 -49 -246 30 -95 89 -186 167 -257 l58
-52 -25 -56 c-38 -83 -58 -188 -52 -282 10 -167 86 -239 308 -290 36 -8 85
-22 109 -30 48 -17 103 -62 94 -77 -4 -5 -18 2 -33 16 l-28 26 5 -30 c2 -16 9
-30 16 -31 30 -2 50 -9 58 -21 7 -9 8 -8 4 5 -3 10 -6 28 -6 39 0 11 -17 37
-38 58 -29 29 -55 43 -112 59 -236 67 -290 95 -322 168 -40 91 -19 242 53 385
16 31 33 59 39 63 6 4 -11 26 -39 51 -68 61 -107 124 -138 221 -23 75 -25 95
-21 203 2 66 3 120 1 120 -2 0 -24 -19 -49 -42z"/>
<path d="M637 1693 c-38 -76 -41 -99 -16 -151 30 -63 150 -179 225 -219 71
-38 79 -39 88 -17 4 11 -2 22 -16 32 -41 29 -116 109 -153 165 -37 56 -84 175
-85 215 0 36 -18 26 -43 -25z"/>
<path d="M1325 1646 c-24 -24 -26 -32 -21 -74 3 -26 9 -103 12 -172 5 -107 3
-138 -15 -214 -26 -109 -64 -190 -136 -290 -33 -47 -47 -72 -35 -66 56 30 152
157 200 264 64 142 86 328 56 476 -10 47 -21 89 -26 94 -5 5 -20 -3 -35 -18z"/>
<path d="M551 1483 c-15 -54 -14 -84 8 -118 33 -55 200 -136 301 -147 45 -4
50 17 6 32 -87 29 -219 136 -275 226 l-30 46 -10 -39z"/>
<path d="M1220 1448 c-25 -27 -23 -63 9 -148 11 -30 21 -82 22 -115 l1 -60 13
40 c8 23 13 83 13 140 -1 156 -14 190 -58 143z"/>
<path d="M540 1272 c0 -58 17 -82 77 -109 49 -22 73 -26 158 -27 87 -1 100 1
103 17 3 13 -3 17 -30 17 -79 0 -211 51 -277 105 l-31 27 0 -30z"/>
<path d="M1157 1252 c-23 -25 -21 -41 8 -104 14 -29 25 -64 25 -78 0 -14 4
-31 9 -39 22 -34 26 168 5 223 -8 21 -27 20 -47 -2z"/>
<path d="M1097 1113 c-13 -12 -7 -56 9 -74 8 -9 24 -39 34 -65 l19 -49 1 66
c0 79 -15 129 -39 129 -10 0 -21 -3 -24 -7z"/>
<path d="M577 1093 c14 -54 53 -73 145 -73 82 0 148 15 148 33 0 9 -25 13 -87
13 -64 1 -104 7 -148 22 -32 12 -60 22 -61 22 -1 0 0 -8 3 -17z"/>
<path d="M805 973 c-27 -7 -76 -12 -107 -10 -51 3 -56 1 -48 -14 5 -9 17 -19
26 -23 51 -20 186 13 192 47 4 19 4 19 -63 0z"/>
<path d="M825 889 c-22 -10 -55 -19 -72 -19 -41 0 -42 -14 -4 -30 23 -9 38 -9
63 -1 45 15 82 46 74 60 -9 14 -12 13 -61 -10z"/>
<path d="M858 806 c-43 -24 -47 -32 -17 -41 24 -8 74 23 74 45 0 21 -17 20
-57 -4z"/>
<path d="M788 626 c-62 -22 -125 -64 -162 -108 -40 -46 -45 -77 -18 -101 17
-16 19 -14 40 28 28 57 94 130 151 167 49 31 46 34 -11 14z"/>
<path d="M870 614 c-95 -64 -176 -182 -187 -274 -8 -65 1 -94 32 -108 35 -16
35 -17 35 26 1 103 48 239 113 325 20 26 36 47 34 47 -1 0 -14 -7 -27 -16z"/>
<path d="M1246 593 c-5 -22 -14 -33 -29 -36 -12 -2 7 -2 43 0 82 6 145 -14
144 -45 0 -16 3 -19 16 -12 9 5 23 17 31 27 12 16 11 16 -9 -1 -18 -15 -22
-16 -22 -4 0 8 -9 23 -20 33 -11 10 -20 15 -20 10 0 -4 -6 -2 -14 4 -7 6 -34
14 -59 17 -31 4 -47 12 -50 23 -2 9 -6 3 -11 -16z"/>
<path d="M1128 543 c6 -2 18 -2 25 0 6 3 1 5 -13 5 -14 0 -19 -2 -12 -5z"/>
<path d="M1010 521 c-30 -10 -68 -25 -85 -33 -40 -22 -101 -86 -115 -122 l-10
-28 31 26 c21 18 42 26 69 26 44 0 64 -19 57 -55 -4 -24 -3 -24 12 -10 13 11
20 12 29 3 9 -9 12 -5 12 20 0 35 -37 82 -64 82 -58 0 15 60 111 90 34 11 48
19 33 19 -14 0 -50 -8 -80 -18z"/>
<path d="M1020 395 c0 -8 7 -15 15 -15 8 0 15 4 15 9 0 5 -7 11 -15 15 -9 3
-15 0 -15 -9z"/>
</g>
</svg>
